<svg xmlns="http://www.w3.org/2000/svg" width="13" height="auto" viewBox="0 0 11 11" fill="none">
  <path d="M10.1238 3.03611H8.16711C8.07455 2.5001 7.79562 2.014 7.37955 1.66362C6.96348 1.31324 6.43702 1.12109 5.89307 1.12109C5.34912 1.12109 4.82265 1.31324 4.40658 1.66362C3.99051 2.014 3.71159 2.5001 3.61903 3.03611H1.6623C1.45828 3.03611 1.26263 3.11716 1.11837 3.26141C0.97411 3.40567 0.893066 3.60133 0.893066 3.80534V9.95919C0.893066 10.1632 0.97411 10.3589 1.11837 10.5031C1.26263 10.6474 1.45828 10.7284 1.6623 10.7284H10.1238C10.3278 10.7284 10.5235 10.6474 10.6678 10.5031C10.812 10.3589 10.8931 10.1632 10.8931 9.95919V3.80534C10.8931 3.60133 10.812 3.40567 10.6678 3.26141C10.5235 3.11716 10.3278 3.03611 10.1238 3.03611V3.03611ZM5.89307 1.88227C6.23406 1.88292 6.56524 1.99649 6.83487 2.20523C7.1045 2.41398 7.29741 2.70615 7.38345 3.03611H4.40268C4.48873 2.70615 4.68163 2.41398 4.95126 2.20523C5.2209 1.99649 5.55207 1.88292 5.89307 1.88227V1.88227Z" fill="#AEB9E1"/>
</svg>