<svg xmlns="http://www.w3.org/2000/svg" width="9" height="auto" viewBox="0 0 7 11" fill="none">
    <path fill-rule="evenodd" clip-rule="evenodd" d="M3.59581 0.924805C3.96315 0.924805 4.26093 1.22259 4.26093 1.58992V1.92639C4.56692 1.9265 4.8699 1.98682 5.15261 2.10392C5.43557 2.22112 5.69267 2.39291 5.90924 2.60948C6.1258 2.82605 6.2976 3.08315 6.4148 3.36611C6.53201 3.64907 6.59233 3.95235 6.59233 4.25862C6.59233 4.62596 6.29455 4.92374 5.92722 4.92374C5.55988 4.92374 5.2621 4.62596 5.2621 4.25862C5.2621 4.12704 5.23618 3.99674 5.18583 3.87517C5.13547 3.7536 5.06167 3.64314 4.96862 3.5501C4.87558 3.45705 4.76512 3.38325 4.64355 3.33289C4.52198 3.28254 4.39168 3.25662 4.2601 3.25662H2.75969C2.49394 3.25662 2.23908 3.36219 2.05117 3.5501C1.86325 3.73801 1.75769 3.99287 1.75769 4.25862C1.75769 4.52437 1.86325 4.77923 2.05117 4.96715C2.23908 5.15506 2.49394 5.26063 2.75969 5.26063H4.59352C5.21207 5.26063 5.80528 5.50634 6.24266 5.94372C6.68004 6.3811 6.92576 6.97431 6.92576 7.59286C6.92576 8.21141 6.68004 8.80462 6.24266 9.242C5.80528 9.67938 5.21207 9.9251 4.59352 9.9251H4.26093V10.2597C4.26093 10.627 3.96315 10.9248 3.59581 10.9248C3.22848 10.9248 2.9307 10.627 2.9307 10.2597V9.9251H2.59298C1.97443 9.9251 1.38122 9.67938 0.943838 9.242C0.506459 8.80462 0.260742 8.21141 0.260742 7.59286C0.260742 7.22553 0.558525 6.92775 0.925858 6.92775C1.29319 6.92774 1.59097 7.22553 1.59097 7.59286C1.59097 7.85861 1.69654 8.11347 1.88445 8.30138C2.07237 8.4893 2.32723 8.59486 2.59298 8.59486H3.56817C3.57734 8.59449 3.58655 8.5943 3.59581 8.5943C3.60507 8.5943 3.61429 8.59449 3.62346 8.59486H4.59352C4.85927 8.59486 5.11413 8.4893 5.30204 8.30138C5.48996 8.11347 5.59553 7.85861 5.59553 7.59286C5.59553 7.32711 5.48996 7.07225 5.30204 6.88434C5.11413 6.69642 4.85927 6.59086 4.59352 6.59086H2.75969C2.14114 6.59086 1.54793 6.34514 1.11055 5.90776C0.673171 5.47038 0.427454 4.87717 0.427454 4.25862C0.427454 3.64007 0.673171 3.04686 1.11055 2.60948C1.54793 2.1721 2.14114 1.92639 2.75969 1.92639H2.9307V1.58992C2.9307 1.22259 3.22848 0.924805 3.59581 0.924805Z" fill="#AEB9E1"/>
</svg>