<svg xmlns="http://www.w3.org/2000/svg" width="13" height="auto" viewBox="0 0 11 11" fill="none">
    <path d="M9.47819 0.924805H1.14486C0.923843 0.924805 0.711881 1.0126 0.555601 1.16888C0.399321 1.32516 0.311523 1.53712 0.311523 1.75814V10.0915C0.311523 10.3125 0.399321 10.5244 0.555601 10.6807C0.711881 10.837 0.923843 10.9248 1.14486 10.9248H9.47819C9.6992 10.9248 9.91117 10.837 10.0674 10.6807C10.2237 10.5244 10.3115 10.3125 10.3115 10.0915V1.75814C10.3115 1.53712 10.2237 1.32516 10.0674 1.16888C9.91117 1.0126 9.6992 0.924805 9.47819 0.924805V0.924805ZM7.88965 4.97689L4.83757 7.89355C4.75866 7.96778 4.65423 8.00881 4.5459 8.00814C4.43916 8.00854 4.33645 7.96746 4.25944 7.89355L2.7334 6.43522C2.69107 6.39829 2.65665 6.35319 2.6322 6.30262C2.60775 6.25204 2.59378 6.19705 2.59112 6.14094C2.58847 6.08483 2.59718 6.02877 2.61675 5.97611C2.63632 5.92346 2.66633 5.87531 2.70498 5.83455C2.74363 5.79379 2.79012 5.76126 2.84167 5.73893C2.89321 5.7166 2.94873 5.70492 3.0049 5.70459C3.06107 5.70427 3.11673 5.7153 3.16853 5.73703C3.22032 5.75877 3.26719 5.79075 3.30632 5.83105L4.5459 7.01335L7.31673 4.37272C7.39775 4.30204 7.50295 4.26541 7.61035 4.27049C7.71774 4.27557 7.81902 4.32197 7.893 4.39999C7.96698 4.478 8.00794 4.5816 8.00731 4.68911C8.00669 4.79662 7.96453 4.89974 7.88965 4.97689Z" fill="#AEB9E1"/>
</svg>