<svg xmlns="http://www.w3.org/2000/svg" width="15" height="auto" viewBox="0 0 13 13" fill="none">
    <path d="M11.3447 1.07509C11.1744 0.905495 10.9721 0.771328 10.7497 0.680337C10.5272 0.589347 10.2889 0.543336 10.0486 0.544964C9.80822 0.546591 9.57057 0.595823 9.34936 0.689817C9.12815 0.783811 8.92776 0.920704 8.75975 1.09259L1.89715 7.95529C1.6437 8.20875 1.46301 8.52567 1.37401 8.87288L0.792819 11.1402C0.717311 11.4348 0.985111 11.7026 1.27967 11.627L3.54714 11.0454C3.89426 10.9564 4.21108 10.7757 4.46448 10.5223L11.3272 3.65955C11.4991 3.49162 11.636 3.29127 11.7301 3.0701C11.8241 2.84892 11.8733 2.6113 11.875 2.37097C11.8766 2.13064 11.8306 1.89237 11.7395 1.66994C11.6485 1.44751 11.5143 1.24533 11.3447 1.07509Z" fill="#AEB9E1" stroke="#AEB9E1" stroke-linecap="round" stroke-linejoin="round"/>
</svg>