<svg xmlns="http://www.w3.org/2000/svg" width="2px" height="3px" viewBox="0 0 17 3" fill="none">
  <path d="M8.95332 2.82021C9.72415 2.82021 10.349 2.27338 10.349 1.59883C10.349 0.924275 9.72415 0.377441 8.95332 0.377441C8.1825 0.377441 7.55762 0.924275 7.55762 1.59883C7.55762 2.27338 8.1825 2.82021 8.95332 2.82021Z" fill="#D9E1FA"/>
  <path d="M15.548 2.82021C16.3189 2.82021 16.9438 2.27338 16.9438 1.59883C16.9438 0.924275 16.3189 0.377441 15.548 0.377441C14.7772 0.377441 14.1523 0.924275 14.1523 1.59883C14.1523 2.27338 14.7772 2.82021 15.548 2.82021Z" fill="#D9E1FA"/>
  <path d="M2.3586 2.82021C3.12942 2.82021 3.7543 2.27338 3.7543 1.59883C3.7543 0.924275 3.12942 0.377441 2.3586 0.377441C1.58777 0.377441 0.962891 0.924275 0.962891 1.59883C0.962891 2.27338 1.58777 2.82021 2.3586 2.82021Z" fill="#D9E1FA"/>
</svg>